# xmcd
#
# Track frame offsets: 
#        150
#        8135
#        22993
#        36108
#        45590
#        56024
#        64976
#        72428
#        85104
#        98175
#        110298
#        118652
#        133903
#        144095
#
# Disc length: 2097 seconds
#
# Revision: 0
# Processed by: cddbd v1.5.2PL0 Copyright (c) Steve Scherf et al.
# Submitted via: ExactAudioCopy v0.99pb3
#
DISCID=bb082f0e
DTITLE=Wichita Mountain Bluegrass - God's Coloring Book
DYEAR=1900
DGENRE=Bluegrass
TTITLE0=Man in the Middle
TTITLE1=Gone Home
TTITLE2=Trade the Old Cross for a Crown
TTITLE3=Cryin Holly
TTITLE4=Remind me Dear Lord
TTITLE5=When Our Lord Shall Come Again
TTITLE6=Gloryland Way
TTITLE7=Life's Railway
TTITLE8=God's Coloring Book
TTITLE9=Scarlet Purple Robe
TTITLE10=Dust on the Bible
TTITLE11=Far Side Banks of Jordan
TTITLE12=Little Mountain Church
TTITLE13=Just as the Sun Went Down
EXTD=
EXTT0=
EXTT1=
EXTT2=
EXTT3=
EXTT4=
EXTT5=
EXTT6=
EXTT7=
EXTT8=
EXTT9=
EXTT10=
EXTT11=
EXTT12=
EXTT13=
PLAYORDER=
